<?xml version="1.0" ?><!DOCTYPE svg  PUBLIC '-//W3C//DTD SVG 1.1//EN'  'http://www.w3.org/Graphics/SVG/1.1/DTD/svg11.dtd'><svg enable-background="new 0 0 64 64" height="105px" id="Layer_1" version="1.1" viewBox="0 0 64 64" width="105px" xml:space="preserve" xmlns="http://www.w3.org/2000/svg" xmlns:xlink="http://www.w3.org/1999/xlink"><path d="M35.5,19.5c-0.001-1.934-1.566-3.499-3.5-3.5c-1.934,0.001-3.499,1.566-3.5,3.5  c0.001,1.584,1.058,2.904,2.5,3.337V25.5c0,0.553,0.447,1,1,1s1-0.447,1-1v-2.663C34.442,22.404,35.499,21.084,35.5,19.5z M32,21  c-0.828-0.002-1.498-0.672-1.5-1.5c0.002-0.828,0.672-1.498,1.5-1.5c0.828,0.002,1.498,0.672,1.5,1.5  C33.498,20.328,32.828,20.998,32,21z" fill="#FFA500"/><g><path d="M55.498,48.922C55.455,35.979,44.952,25.501,32,25.5C19.048,25.501,8.545,35.979,8.502,48.922H55.498z    M16.981,35.609c1.338-1.607,3.493-3.489,6.702-4.558c0.524-0.175,1.091,0.108,1.265,0.632c0.175,0.524-0.108,1.091-0.632,1.265   c-2.704,0.902-4.52,2.449-5.688,3.811c-1.166,1.36-1.668,2.533-1.7,2.611v0.001c-0.205,0.513-0.787,0.763-1.3,0.558   s-0.763-0.787-0.558-1.3C15.1,38.56,15.642,37.22,16.981,35.609z" fill="#FFA500"/><path d="M5.508,50.922l5.664,5.664c0.72,0.715,1.679,1.287,2.703,1.715C14.902,58.723,15.985,58.996,17,59h30   c1.015-0.004,2.098-0.277,3.125-0.699c1.024-0.428,1.983-1,2.703-1.715l5.664-5.664H5.508z" fill="#FFA500"/></g></svg>